<svg xmlns="http://www.w3.org/2000/svg" viewBox="0 0 482 114" width="482" height="114" role="img" aria-label="BlitzBoard">
  <path d="M41.10 100L17.81 100L17.81 14.06L41.10 14.06Q50.47 14.06 54.75 18.63Q59.02 23.19 59.02 33.69L59.02 33.69L59.02 37.45Q59.02 43.51 56.85 47.27Q54.67 51.03 50.23 52.20L50.23 52.20Q56.04 53.66 58.02 59.06Q60.00 64.45 60.00 72.22L60.00 72.22Q60.00 80.57 58.43 86.82Q56.87 93.07 52.77 96.53Q48.67 100 41.10 100L41.10 100ZM34.61 27.34L34.61 46.44L38.12 46.44Q40.51 46.44 41.20 44.58Q41.88 42.72 41.88 40.14L41.88 40.14L41.88 31.49Q41.88 27.34 38.22 27.34L38.22 27.34L34.61 27.34ZM36.31 84.86L36.31 84.86Q43.00 84.86 43.00 78.52L43.00 78.52L43.00 67.77Q43.00 64.11 41.91 61.99Q40.81 59.86 37.78 59.86L37.78 59.86L34.61 59.86L34.61 84.77Q35.68 84.86 36.31 84.86ZM100.52 100L65.66 100L65.66 14.06L82.85 14.06L82.85 85.35L100.52 85.35L100.52 100Z" fill="#141b24"></path>
  <g transform="translate(102.1 12.66) scale(0.6719)"><path d="M40 2 L11 71 L30 71 L24 126 L53 57 L34 57 Z" fill="#00801a"></path></g>
  <path d="M173.97 100L156.78 100L156.78 30.57L146.58 30.57L146.58 14.06L184.17 14.06L184.17 30.57L173.97 30.57L173.97 100ZM223.68 100L186.71 100L186.71 84.38L206.39 29.88L188.62 29.88L188.62 14.06L224.51 14.06L224.51 29.10L204.49 84.18L223.68 84.18L223.68 100Z" fill="#141b24"></path>
  <path d="M253.27 100L229.98 100L229.98 14.06L253.27 14.06Q262.64 14.06 266.92 18.63Q271.19 23.19 271.19 33.69L271.19 33.69L271.19 37.45Q271.19 43.51 269.02 47.27Q266.84 51.03 262.40 52.20L262.40 52.20Q268.21 53.66 270.19 59.06Q272.17 64.45 272.17 72.22L272.17 72.22Q272.17 80.57 270.60 86.82Q269.04 93.07 264.94 96.53Q260.84 100 253.27 100L253.27 100ZM246.78 27.34L246.78 46.44L250.29 46.44Q252.68 46.44 253.37 44.58Q254.05 42.72 254.05 40.14L254.05 40.14L254.05 31.49Q254.05 27.34 250.39 27.34L250.39 27.34L246.78 27.34ZM248.48 84.86L248.48 84.86Q255.17 84.86 255.17 78.52L255.17 78.52L255.17 67.77Q255.17 64.11 254.08 61.99Q252.98 59.86 249.95 59.86L249.95 59.86L246.78 59.86L246.78 84.77Q247.85 84.86 248.48 84.86ZM298.34 100.78L298.34 100.78Q288.04 100.78 282.59 94.56Q277.15 88.33 277.15 76.56L277.15 76.56L277.15 35.74Q277.15 24.71 282.54 18.99Q287.94 13.28 298.34 13.28L298.34 13.28Q308.74 13.28 314.13 18.99Q319.53 24.71 319.53 35.74L319.53 35.74L319.53 76.56Q319.53 88.33 314.09 94.56Q308.64 100.78 298.34 100.78ZM298.48 84.96L298.48 84.96Q302.39 84.96 302.39 77.39L302.39 77.39L302.39 35.45Q302.39 29.10 298.58 29.10L298.58 29.10Q294.29 29.10 294.29 35.60L294.29 35.60L294.29 77.49Q294.29 81.49 295.26 83.23Q296.24 84.96 298.48 84.96ZM340.82 100L324.12 100L332.42 14.06L361.57 14.06L369.72 100L353.46 100L352.24 86.13L341.89 86.13L340.82 100ZM346.38 28.71L343.11 72.41L350.93 72.41L347.17 28.71L346.38 28.71ZM392.38 100L375.00 100L375.00 14.06L401.37 14.06Q407.96 14.06 411.33 17.07Q414.70 20.07 415.84 25.46Q416.99 30.86 416.99 38.13L416.99 38.13Q416.99 45.17 415.21 49.37Q413.43 53.56 408.49 55.18L408.49 55.18Q412.55 56.01 414.18 59.20Q415.82 62.40 415.82 67.48L415.82 67.48L415.82 100L398.88 100L398.88 66.36Q398.88 62.60 397.34 61.69Q395.80 60.79 392.38 60.79L392.38 60.79L392.38 100ZM392.48 29.98L392.48 45.90L396.63 45.90Q400.19 45.90 400.19 38.13L400.19 38.13Q400.19 33.11 399.41 31.54Q398.63 29.98 396.48 29.98L396.48 29.98L392.48 29.98ZM445.70 100L422.65 100L422.65 14.06L446.29 14.06Q455.56 14.06 460.25 19.21Q464.94 24.37 464.94 34.28L464.94 34.28L464.94 74.51Q464.94 86.72 460.67 93.36Q456.39 100 445.70 100L445.70 100ZM439.94 29.10L439.94 84.81L442.92 84.81Q447.65 84.81 447.65 80.22L447.65 80.22L447.65 35.89Q447.65 31.59 446.51 30.35Q445.36 29.10 441.84 29.10L441.84 29.10L439.94 29.10Z" fill="#00801a"></path>
</svg>
